<?xml version="1.0" encoding="utf-8"?>
<!-- Generator: Adobe Illustrator 19.2.1, SVG Export Plug-In . SVG Version: 6.00 Build 0)  -->
<svg version="1.1" id="layer" xmlns="http://www.w3.org/2000/svg" xmlns:xlink="http://www.w3.org/1999/xlink" x="0px" y="0px"
	 viewBox="0 0 652 652" style="enable-background:new 0 0 652 652;" xml:space="preserve">
<style type="text/css">
	.st0{fill-rule:evenodd;clip-rule:evenodd;fill:#0085B8;}
</style>
<path class="st0" d="M346.1,267.8l0.1-0.6l0.6-1.8l1.2-2.6l2.1-2.2l1.2-0.8l1.3-0.8l2.9-0.9l0.7-0.2l0.4-0.1l-0.9,2.6l-0.9,2
	l-1.2,1.9l-1.3,1.7l-0.9,1l-0.6,0.6l-1.5,1.3l-1.3,0.6l-0.6,0.2h-0.2l-0.2-0.1l-0.2-0.2l-0.2-0.2l-0.2-0.2l-0.1-0.2l-0.2-0.1v-0.2
	l-0.1-0.1v-0.2v-0.2l-0.1-0.2L346.1,267.8z M332.7,277.5l0.8,1.3l2.6,2.5l3.2,1.7l3.5,1l2.7,0.2l3.9-0.6l1.8-0.7l0.9-0.3l3.5-2.3
	l1.7-1.4l1.8-2.2l1.4-2.2l1.2-2.3l1.7-4.7l1.4-4.7l0.8-3.2l0.9-3.2l1.1-3.1l1.1-3l1-2.7l0.7-2l0.5-1.2l0.2-0.7l0.1-0.5V243l-0.1-0.2
	l-0.1-0.3l-0.2-0.3l-0.4-0.5l-0.5-0.5l-0.5-0.4l-0.5-0.2l-0.4-0.2l-0.5-0.2l-0.7-0.1l-0.7,0.1l-0.9,0.5l-1.4,0.9l-1.7,1.2l-2.6,1.6
	l-2.7,1.5l-2.7,1.4l-2.8,1.1l-0.5,0.2l-2.3,0.9l-2.6,1.4l-2.7,1.3l-2,1.1l-1.9,1.4l-1.7,1.6l-1.7,1.8l-1.3,1.7l-2,3.8l-1.4,4
	l-0.3,3.5l0.5,3.2L332.7,277.5z"/>
<path class="st0" d="M477.2,304.6l-1.5,1.4l-2.6,3.3l-1.7,3.9l-1.1,3.1l-1.2,3l-2.3,4.7l-1,1.7l-0.5,1l-1.7,2.6l-1.8,2.6l-2.2,2.3
	l-1.9,1.5l-0.8,0.2l-1.4-0.2l-1-0.4l-0.8-0.8l-0.6-1.2l-0.4-4.2l-0.1-3l0.2-3l0.3-2.9l0.5-2.9l0.6-2.9l0.8-3l1.1-2.8l1.1-2.7
	l1.9-3.3l1.7-2.1l1.8-1.9l1.3-1l1.9-0.7l1.4-0.5h1l2.7,0.5l2,1.1l1.1,1.1l0.6,0.8l0.2,0.5l0.2,0.2l4,2.2L477.2,304.6z M406.9,298.4
	l-1.1,4.6l-1,3l-1.1,2.9l-1.2,2.9l-1.3,2.8l-0.1,0.1l-1.4,2.8l-1.6,2.6l-1.7,2.6l-0.8,1.1l-1.2,1.7l-2,1.8l-2.2,1.7l-2.6,1.4
	l-0.5,0.2l-0.2-0.1l-0.2-0.1l-0.8-0.3l-0.8-0.6l-0.4-1l-0.2-0.2v-0.2l-0.5-3.1l-0.2-5.7l0.2-2.9l0.4-2.9l0.5-2.9l0.8-2.7l1-2.8
	l1.1-2.6l1.3-2.5l2-2.8l1.7-2l1.9-1.9l0.9-0.8l1.1-1l2.1-0.9l1.6-0.2l0.7,0.1l1.4,0.2l1.7,0.8l0.8,0.6l1.5,1.7l0.6,1.1l0.2,0.5
	l0.2,0.2L406.9,298.4z M403.9,373.3v4.4l-0.2,3.3l-0.3,3.2l-0.3,3.2l-0.5,3.2l-0.5,3.2l-0.7,3.1l-0.2,0.8l-0.6,2.4l-0.4,1.6
	l-0.2-0.4l-0.2,0.2l-0.2,0.2h-0.1h-0.1h-0.2l-0.2-0.2h-0.1h-0.1H399v-0.1v-0.1l-0.1-0.1h-0.1l-0.1-0.1l-0.1-0.1v-0.1V401v-0.1
	l-0.1-0.3l-0.1-0.2l-0.2-2.2l-0.1-4.7l0.2-3.2l0.2-3.2l0.5-3.1l0.6-3.1l0.7-3.1l0.6-2.3l0.2-0.8l1.1-3l0.4-0.8h0.2v-0.1h0.1h0.1h0.1
	h0.1l0.1,0.1v0.1h0.1l0.1,0.1h0.1h0.1l0.1,0.1v0.1h0.1v0.1l0.1,0.1v0.1v0.1h0.1L403.9,373.3z M297.8,273.4l-0.3,3.3l-0.3,3.2
	l-0.5,3.3l-0.5,3.2l-0.7,3.2l-0.8,3.2l-0.8,3.2l-0.8,2.6L293,299l-1,3.1l-1.1,3l-0.4,1.1l0,0l-0.2,0.1l-0.2-0.1H290l-0.3-0.1
	l-0.2-0.2l-0.1-0.2L289,302l-0.4-3.3l-0.2-3.3l-0.2-3.3v-3.2v-3.3l0.1-3.3l0.2-3.3l0.2-3.2l0.4-3.2l0.4-3.3l0.5-3.2l0.6-3.3l0.7-3.2
	l0.7-3.2l0.8-3.2l0.5-1.6l0.4-1.2l1.1-2.6h0.1l0.3-0.1h0.3l0.3,0.1l0.3,0.1l0.2,0.2l0.2,0.2l0.2,1.1l0.6,4.5l0.4,3.3l0.3,3.2
	l0.2,3.3l0.1,3.2l-0.1,3.5L297.8,273.4z M244.7,272l-0.5,3.3l-0.5,3.3l-0.6,3.3l-0.6,3.3l-0.8,3.2l-0.8,3.3l-0.2,0.5l-0.7,2.6
	l-1,3.2l-0.5,1.6l-0.2,0.2l-0.1,0.1l-0.2,0.1h-0.2H238l-0.3-0.2l-0.2-0.2l-0.2-0.5l-0.4-3l-0.5-3.3l-0.3-3.2l-0.3-3.2l-0.2-3.3v-3.2
	v-3.2l0.2-3.3l0.3-3.3l0.3-3.2l0.5-3.2l0.5-3.2l0.6-3.2l0.8-3.2l0.8-3.2l0.8-2.9l0.5-1.2l0.5-1.3l0.8-1.7l0.9-0.9l0.4-0.2h0.3
	l0.4,0.1l0.4,0.2l0.6,0.4l0.6,0.5l0.2,0.6l0.1,0.5l0.1,1v3.9v5.8l-0.2,3.2l-0.2,3.4l-0.2,3.3l-0.4,3.3L244.7,272z M620.7,332.5
	l-0.4-0.9l-1.3-1.4l-0.8-0.5l-2.4-1.1l-2.4-0.1l-4.7,1.4l-3,1.2l-3,1l-3.2,1l-3.2,0.8l-3.1,0.8l-4.7,1l-1.3,0.1l-2.6-0.5l-1.5-0.6
	l-2-1.6l-1.6-2l-1.1-2.3l-0.2-1.8l-2.8-25.9l-0.5-2.6l-1.6-3l-0.8-1.1l-2.2-1.8l-2.5-1.2l-1.7-0.4H564l-2,0.5l-1,0.5l-2.3,2.3
	l-2,2.4l-2,2.4l-1.9,2.6l-1.7,2.6l-1.7,2.7l-1.5,2.8l-1.4,2.8l-1.1,2.6l-0.7,1.4l-0.2,0.4l-0.1,0.2l-0.1,0.1l-0.2,0.1l-0.1,0.1
	l-0.1,0.1H544h-0.2l-0.1-0.1h-0.1h-0.1h-0.1l-0.1-0.1h-0.1l-0.2-0.5l0.1-1.7l0.1-2.9l0.1-3v-3l-0.2-3.3l-0.2-3.2l-0.2-2.6l-0.1-1.1
	l-0.4-1.1l-1.1-2l-1.2-1.6l-1.1-0.9l-1.7-0.8l-2.1-0.4h-2l-2.2,0.5l-1.9,0.9l-1.9,1.3l-1.7,1.6l-1.5,1.8l-2,2.6l-2.9,4.5l-7.3,11.3
	l-6.6,9.3l-5.8,7.6l-3.3,4.3l-0.9,1.1l-0.3,0.5l-0.2,0.2l-0.2,0.2l-0.2,0.1l-0.4,0.2l-0.7,0.2l-0.8-0.1l-0.7-0.2l-0.5-0.4l-0.3-0.2
	l-0.1-0.2l-0.1-0.2l-0.2-1.5l-0.3-3.9l-0.2-3.4l0.1-3.2l0.1-3.2l0.3-3.2l0.4-3.6l0.5-3.7l0.3-1.7v-0.6l0.2-1.1l0.1-1.7l-0.1-1.7
	l-0.3-1.5l-0.5-1.2l-0.7-0.9L490,299l-1-0.5l-2.3-0.9l-2.5-3.5l-0.1-0.3v-1.4l-1.2-3.5l-0.8-1.4l-1.9-2l-3.7-2.2l-4-1.4l-5.5-0.2
	l-1.2,0.2l-3.7,0.7l-2.3,0.7l-2.9,1.3l-2.3,1.3l-2.5,2l-2,2.4l-1.9,2.5l-1.7,2.6l-1.7,2.6l-1.4,2.7l-1.4,2.9l-1.2,2.8l-1.1,2.9
	l-0.9,2.9l-0.8,3l-0.7,3l-0.3,1.4l-1.1,0.3l-3,0.9l-3,1l-2.9,1.2l-2.8,1.4l-2.7,1.4l-1.4,0.8l-0.2-1.1l-0.3-3.2l-0.1-3.2l-0.1-3.2
	l0.1-3.3l0.2-3.2l0.4-3.2l0.4-3.2l0.5-3.1l-0.3-1.9l-0.5-1.1l-0.8-0.8l-0.3-0.3l-3.6-2.7l0.1-0.3l0.6-3.2l-0.2-3l-0.9-3l-2.2-3
	l-2.8-2.5l-3.8-1.7l-4.1-0.8l-1-0.1l-1.1-0.1l-3.2,0.3l-1.2,0.4l-3.3,1l-2.5,1.5l-2.5,1.9l-2.3,2l-2.2,2.1l-2.1,2.3l-2,2.3l-1.9,2.5
	l-1.7,2.6l-1.7,2.6l-1.4,2.7l-1.4,2.8l-1.1,2.8l-1,2.9l-1,3l-0.7,2.9l-0.5,3l-0.5,3.1l-0.2,3l-0.1,3.1v1.2l-0.2,0.3l-2.6,2.9l-2.6,2
	L359,333l-1.8,0.6l-2.3,0.2l-1.2-0.1l-2.3-0.8l-2.3-1.7l-1.5-2l-0.8-2.3l-0.2-3.2l-0.2-3.1v-3.2v-3.2l0.2-3.2l0.3-3.2l0.5-3.2
	l0.5-2.9l0.3-2.3l-0.2-1.9l-0.9-1.9l-1.4-1.6l-1.1-0.8l-0.7-0.3l-0.4-0.2l-0.8-0.2l-1.3-0.5l-2-0.1l-2.9,0.5l-2.9,1.4l-2.5,1.9
	l-1.4,1.8l-1.4,2.7l-1.1,4l-0.6,3.7l-0.5,3.1l-0.7,2.8l-0.8,2.7l-1,2.6l-1.2,2.6L321,324l-1.7,2.2l-1.7,2.5l-2,2.3l-2.3,2.2
	l-2.4,1.5l-2.5,0.9l-2.6,0.4l-2.3-0.3l-2-0.9l-1.5-1.2l-0.8-1l-0.6-1.2l-0.5-1.5l-0.2-1.7l0.1-1.3l0.5-1.4l0.3-1l0.2-0.3l0.8-1.6
	l1.3-2.5l1.4-2.9l1.3-3l1.2-3l1.1-3.1l1.1-3.1l1-3.1l0.8-3.2l0.8-3.2l0.7-3.2l0.6-3.2l0.5-3.2l0.4-3.2l0.3-3.3l0.2-3.3l0.2-3.3v-3.2
	v-3.3l-0.2-3.2l-0.2-3.3l-0.3-3.2l-0.4-3.2l-0.5-3.2l-0.6-3.3l-0.7-3.2l-0.8-3.2L308,237l-0.5-2.3l-2-3.2l-2-2.2l-1.3-1l-3.1-1.4
	l-1.4-0.4l-2.9-0.1l-1.6,0.3l-0.5,0.1l-3.2,1.5l-2.1,1.7l-1.4,1.5l-2.4,3.9l-1.8,4.3l-1.1,3.1l-0.9,3.2l-0.9,3.2l-0.8,3.2l-0.8,3.2
	l-0.7,3.3l-0.6,3.2l-0.5,3.2l-0.5,3.3l-0.3,3.3l-0.3,3.3l-0.2,3.2l-0.2,3.3l-0.1,3.2v3.4l0.2,3.2l0.1,3.3l0.3,3.2l0.3,3.3l0.5,3.2
	l0.4,3.3l0.5,3.3l0.7,3.3l0.6,3.2l0.8,3.3l0.8,3.2l0.5,1.6l0.5,1.6l-0.4-1.3l-0.2,0.3l-2,3.3l-2.6,2.6l-3.1,2l-2.1,1l-3.8,0.7
	l-3.9-0.2l-3.9-1.1l-2.1-1.2l-1.9-1.4l-1.8-1.4l-1.7-1.7l-1.4-1.7l-1.4-2l-1.1-2l-0.5-1.3l0.2-0.5l1.4-3l1.4-3.1l1.3-3l1.1-3
	l1.1-3.2l1.1-3.1l1-3.2l0.9-3.3l0.8-3.2l0.7-3.3l0.7-3.2l0.6-3.3l0.5-3.2l0.5-3.3l0.4-3.2l0.3-3.3l0.2-3.3l0.2-3.3l0.1-3.2v-3.6
	l-0.1-3.2l-0.2-3.4l-0.2-3.2l-0.3-3.2l-0.4-3.3l-0.5-3.3l-0.8-4.8l-0.2-1l-0.2-0.3l-1.5-3.1l-2.3-2.8l-2.3-1.7l-3.1-1.2l-3.1-0.2
	l-3.3,0.7l-1.1,0.5l-2.3,1.1l-2.4,2.3l-1.9,2l-1.6,2.9l-1.4,2.9l-1.4,2.9l-1.2,3l-1.3,2.9l-1.1,3.1l-1.1,3.1l-0.9,3.2l-0.8,3.1
	l-0.8,3.2l-0.6,3.2l-0.5,3.2l-0.5,3.2l-0.3,3.3l-0.2,3.2l-0.1,3.2l-0.2,3.3l0.2,3.2l0.2,3.2l0.2,3.2l0.4,3.3l0.5,3.2l0.6,3.2
	l0.6,3.2l0.8,3.2l0.8,3.2l0.9,3.1l1.1,3.1l1.1,3l0.6,1.4l0.5,1.1l-0.2,0.3l-2.2,3.5l-2.7,2.9l-3.4,2.3l-3.8,1.5l-3.3,0.6h-0.8
	l-2-0.5l-0.7-0.4l-1.5-1.4l-1.3-3.5l-0.6-3.1l-0.5-3.2l-0.4-3l-0.2-3.2l-0.1-3.2l0.1-3.1l0.2-3.2l0.4-3.2l0.5-3.2l1-4.6V295v-0.5
	l0.1-0.3V294v-0.3l-0.3-1.4l-0.3-0.7l-1.3-1.4l-1.4-0.7l-1.6-0.5l-4.6-0.2l-3.1,0.8l-1.1,0.5l-2.3,2.2l-0.9,1.3l-1.3,2.8l-4.5,11.3
	l-3.6,8.5l-2.6,5.5l-1.9,3.3l-2.3,3.1l-0.7,0.6l-0.8,0.4l-0.5,0.1l-0.5-0.1l-0.2-0.2l-0.5-1.3l-0.6-4l-0.3-2.8l-0.3-2.9l-0.1-3.3
	v-3.3l0.1-3.2l0.2-3.3l0.3-3.2l0.5-3.2l0.5-3.2l0.6-3.2l0.6-2.9l-0.2-2.3l-0.4-1.1l-0.7-0.9l-1.1-0.8l-1.1-0.4l-4.2-0.2l-3.1,0.6
	l-2.3,1.2l-1.1,0.9l-0.9,1l-6,7.9L140.2,309l-1.5,1.7l-2.2,2.3l-2.3,2.3l-2.3,2.1l-2.5,2l-2.6,1.9l-2.6,1.8l-3.5,2.2l-2.6,1.7
	l-2.6,1.5l-2.7,1.4l-2.7,1.2l-2.8,1.1l-2.9,0.9l-2.9,0.8l-4,0.8l-2.9,0.5l-3,0.2l-5.9-0.1l-2.9-0.2l-3-0.5l-2.9-0.7l-2.9-0.8l-2.7-1
	l-3.5-1.5l-2.6-1.3l-2.5-1.5l-2.4-1.6l-2.4-1.8l-2.2-2l-2-2l-2-2.2l-1.7-2.3l-1.7-2.5l-1.7-2.8l-1.3-2.9l-1.1-2.8l-1-2.9l-0.8-3
	l-0.7-2.9l-0.5-3l-0.4-4.5l-0.2-2.9l0.2-5.8l0.4-2.9l0.5-2.8l0.8-2.8l1-2.7l1.4-3.7l1.2-2.5l1.4-2.3l1.5-2.3l1.8-2.1l1.9-2.1
	l3.2-2.6l2.3-1.7l2.4-1.4l2.6-1.3l2.6-1.1l2.2-0.8l2.8-0.8l2.7-0.5l2.8-0.4l4.5-0.2L86,243l2.7,0.5l2.6,0.8L94,245l2.6,1.1l2.6,1.2
	l2.3,1.5l2.3,1.6l2.1,1.7l2.9,2.9l1.4,1.5l0.3,1.1v0.1v0.1l0.1,0.1v0.2l0.2,0.2v0.1v0.1h0.2v0.2l-0.1,0.7l-1.1,2.9l-0.9,2.3
	l-0.8,3.2l-0.5,4.8l0.5,5l1.1,3.9l1.9,3.6l2.3,3.2l2.3,2l3.1,1.5l2.7,0.5l2.7-0.3l1.3-0.4l2.9-1.8l1.3-1.1l1.6-2.3l1.8-3.9l0.5-2.3
	l0.3-2.9v-5.1l-0.2-2.9L133,266l-0.6-2.9l-0.8-2.9l-1-2.7l-1.1-2.6l-1.4-2.7l-1.7-2.6l-1.7-2.5l-1.8-2.5l-2-2.3l-2-2.2l-2.7-2.6
	l-2.3-1.9l-2.5-1.8l-2.5-1.7l-2.7-1.5l-2.6-1.3L100,228l-3-0.9l-3-0.6l-3.1-0.5l-3.1-0.4l-3.1-0.2h-3.1h-3.1l-3.2,0.3l-3.1,0.4
	l-3,0.6l-3,0.6l-4.4,1.2l-2.9,1l-3,1.1l-2.7,1.3l-2.7,1.4l-2.6,1.5l-2.5,1.7l-4.1,3.2l-2.3,2.1l-2.2,2.3l-2,2.4l-1.9,2.4l-1.8,2.5
	l-1.7,2.6l-2.3,4l-1.2,2.9l-1.1,2.9l-1,2.9L23,270l-0.8,3.1l-0.5,3.1l-0.4,3.1l-0.3,3.1l-0.2,3.2v3.1l0.2,3.2l0.3,3.2l0.5,3l0.5,3.1
	l0.7,3.1l0.9,3l0.9,2.9l1.1,3l1.2,2.8l1.3,2.8l1.4,2.7l1.6,2.6l1.7,2.6l1.9,2.5l1.9,2.4l2.8,2.9l2.3,2.2l2.3,2l2.6,1.9l2.5,1.8
	l2.6,1.6l2.8,1.6l2.7,1.4l4.1,1.7l3,1l3,1l3.1,0.8l3.1,0.6l3.1,0.5l3.2,0.4l3.4,0.2h3.2H90l3.2-0.2l3.2-0.3l3.1-0.5l3.2-0.6l3.2-0.6
	l3-0.8l3-1l3-1.1l4.9-2l2.9-1.4l2.9-1.4l2.8-1.7l2.6-1.7l2.7-1.7l2.5-2l2.6-2l2.4-2.1l2.3-2.2l2.3-2.3l1.9-2l2.2-2.5l0.5-0.5
	l0.7-0.3l0.7-0.2h0.4l0.2,0.1l0.2,0.1l0.5,0.5l0.2,0.8l0.2,4.8l0.3,4.5l1,4.2l2,3.9l2.3,3.4l1.2,1.3l2.7,1.9l1.5,0.6l4,0.6l4-0.2
	l2.7-0.9l2.3-1.1l2.1-1.4l2-1.6l1.8-1.7l1.6-2l2.5-3.5l1.1-1.5l0.5-0.5l0.2-0.2l0.2-0.1l0.2-0.1h0.2l0.2,0.1l0.6,0.7l1.4,2.8l1,2
	l1.1,2.1l2.5,3.2l3.1,2.5l2.4,1.3l3.8,1.1l5.1,0.1l2.5-0.3l3.5-0.9l2.6-1l2.6-1.3l2.6-1.4l2.4-1.6l2.3-1.6l3.1-2.6l1.1-0.9l0.7-0.5
	l1.1-0.3l0.8,0.1l1.1,0.3l1.3,0.8l2.4,2.1l0.7,0.6l2,1.6l2,1.7l2.3,1.4l2.3,1.2l2.3,1.1l2.3,0.8l2.4,0.8l4.9,0.7l5.1-0.1l2.5-0.5
	l2.4-0.6l2.3-0.8l2.3-1l2.2-1.4l2.1-1.4l1.8-1.6l1.1-0.5l1.4-0.2l0.5-0.1h0.2l0.1,0.1h0.2l1.7,1.4l1.5,1.7l1.7,1.5l1.9,1.4l2.4,1.4
	l2.2,0.9l4.6,1.2l4.7,0.3l4.8-0.6l2.9-1l2.3-1.1l2.3-1.3l2-1.4l2-1.7l1.9-1.8l1.7-1.9l1.4-2l1.8-2.9l0.3-0.4l0.1-0.1l0.1-0.1
	l0.2-0.1l0.5-0.2h0.3h0.1h0.1l0.2,0.3l1.7,3.7l1,2l1.3,1.8l1.4,1.7l2.9,2.9l3.1,1.9l2.5,1l4,0.4l3.9-0.5l1.9-0.6l2.7-1.2l3.4-2.4
	l2.7-3.2l0.8-0.8l0.6-0.4l1-0.2h0.3h0.2l1.4,0.8l3,2.6l1.7,1l2.6,1l4.3,0.6l4.4-0.2l4.2-1.1l2.2-1.2l2.1-1.3l1.9-1.4l0.3-0.3
	l1.6-1.4l1.6-1.8l1.6-2l0.8-1.4l1.1-1.8l0.4-0.7l0.2-0.1l0.3-0.2h0.2l0.1,0.1l0.2,0.1l0.2,0.2l0.1,0.2v0.2l-0.3,6l-0.4,0.4l-2,2.2
	l-0.1,0.2l-2.1,2.4l-2,2.5l-1.3,1.7l-0.5,0.8l-1.7,2.6l-1.7,2.8l-1.6,2.8l-1.4,2.9l-1.3,2.9l-1.1,2.9l-1.1,3l-0.9,3l-0.8,3.1l-0.7,3
	l-0.5,3.2l-0.4,3.2l-0.3,3.2l-0.2,3.2v3.2l0.2,3.2l0.2,3.2l0.4,3.2l0.6,3.2l0.6,3l1.1,3.6l0.8,1.5l1.7,2l3.3,1.8l3.9,0.8h1.4l2-0.1
	l1.7-0.3l1.7-0.8l1.9-0.8l2.5-1.8l1.6-1.7l1.7-2.1l1.6-2.6l1-1.8l1-3.2l1-3.1l0.9-3.2l0.8-3.2l0.8-3.2l0.8-3.2l0.6-3.3l0.5-3.3
	l0.5-3.2l0.4-3.2l0.3-3.3l0.4-3.3l0.1-3.2l0.2-3.3l0.1-5.6l-0.1-3.3l-0.2-3.3l-0.2-3.2l-0.3-3.3V344l0.5-0.6l1.7-1.9l1.9-1.8l2-1.6
	l2.2-1.4l2.3-1.1l2.3-1.1l1.5-0.5v0.1l0.2-0.1l0.8,0.1l0.5,0.2h0.2h0.1l0.1,0.1l0.2,0.1v0.2h0.2l0.4,1.4l0.7,3.9l1.5,3.7l2,3.1
	l2.7,2.6l2.5,1.4l4.2,1.3l4.2,0.3l4.3-0.5l2-0.6l2.5-1.3l2.3-1.4l1-0.7l1.2-0.9l2.1-1.8l2-2l1.8-1.9l0.8-0.7l0.3-0.2l0.2-0.1
	l0.2-0.1h0.3l0.4,0.1l0.4,0.2l0.2,0.1l0.1,0.1l0.2,0.1l0.2,0.3l0.7,1.4l1.3,2.6l1.8,2.6l3,2.3l1.7,0.8l4.8,1.3l3.9,0.1l4.2-1.1
	l2.5-1.3l2.5-1.4l3.5-2.9l2.3-2.3l2.3-2.3l2.1-2.5l2.1-2.5l2-2.6l2-2.6l1.9-2.7l1.7-2.7l1.3-2.1l0.5-0.7l0.3-0.5l0.5-0.8l0.5-0.5
	l0.3-0.3l0.1-0.1l0.1-0.1h0.1l0.1-0.1h0.1l0.1-0.1h0.1h0.2h0.2l0.1,0.1h0.2l0.1,0.1l0.2,0.1h0.1l0.1,0.1l0.2,0.9l0.2,2.6l0.2,3.2
	l0.2,3.3l0.2,3.4l0.2,3.3l0.2,3.4l0.2,3.3l0.2,1.7v-0.8l0.1,0.3l0.8,3.1l1.5,2.6l0.5,0.6l1.6,1.2l2.1,0.5l2.5-0.1l2.2-0.8l2.8-2.4
	l2.2-3.1l1.8-2.8l1.9-2.8l1.8-2.8l1.7-2.8l1.7-3l1.6-2.9l1.4-2.6l0.8-1.4l0.5-0.5l0.4-0.4l0.2-0.2h0.2l0.2-0.1h0.1l0.2-0.1h0.2h0.2
	h0.1l0.2,0.1l0.2,0.2l0.1,0.3l0.2,1.1l0.6,2.6l0.7,2.9l0.8,3.1l1,3l1.1,2.9l1.5,3.4l2.1,2.9l2.9,2.4l1.9,0.8l2.9,0.8l3,0.2l3.1,0.1
	l3.3-0.1l3.2-0.5l3.1-0.5l3.2-0.6l3-0.8l3.1-1l3-1l2.9-1.2l2.9-1.3l2.9-1.4l2.8-1.6l1.1-1.1l0.2-0.1l1.8-0.9l1.4-1.4l1.1-1.7
	l0.3-1.4v-1.5L620.7,332.5z"/>
</svg>
