<svg xmlns="http://www.w3.org/2000/svg" viewBox="0 0 316.77 62.12"><defs><style>.cls-1{fill:#fff;}</style></defs><title>Asset 1</title><g id="Layer_2" data-name="Layer 2"><g id="Layer_1-2" data-name="Layer 1"><path class="cls-1" d="M67.5,24.43s-4.88-4.5-18.34-8c-8.28-2.18-18.3-3-22.95-2.45-5.84.7-7.86,1.86-8.79,2.47l4.55,2c.19-.07.37-.15.59-.21,4.9-1.68,14.74-1.85,25.84.28C60.36,20.81,67.5,24.43,67.5,24.43Z"/><path class="cls-1" d="M42.55,3.22C32.44,1.24,22.65.59,15,1.38,3.83,2.52.75,6.35.13,9.35c-.95,4.6,3.4,9.07,10.46,12.87a7.15,7.15,0,0,0-.09,5.28,13.82,13.82,0,0,0,6,6.73,39.08,39.08,0,0,0,7.14,3.1,7,7,0,0,0,1.1,4.56,10.75,10.75,0,0,0,4.07,3.53,25.28,25.28,0,0,0,4.83,1.84h0A18.36,18.36,0,0,0,43,53.81c.27.08.53.14.78.2.23,2,4.69,5.85,9.25,4.12A7,7,0,0,0,57.61,50a11.88,11.88,0,0,0,4.15-6.78,11.23,11.23,0,0,0,4-5.31c5.38-2.39,5.95-5.19,5.86-6.53h0c5.33-1.7,7.12-4.35,7.58-6.55C81.11,15.7,62.2,7.06,42.55,3.22ZM56.84,50.61c-1.84,5.29-8.41,7-12.31,3.54a12.92,12.92,0,0,0,3.46,0,16.18,16.18,0,0,0,5-1.24,18.69,18.69,0,0,0,3.86-2.3Zm4.2-6.9c-3.92,6.58-17.32,9-26,3.88h0c.81.15,1.65.28,2.59.39a43.94,43.94,0,0,0,11.11,0,29.07,29.07,0,0,0,9.79-2.81A17.42,17.42,0,0,0,61,43.71Zm4-5.52c-1.38,2.08-5.91,5.87-18.85,6.34a46,46,0,0,1-12.64-1.45c-1.75-.45-4.35-1.33-5.69-2.69a8.55,8.55,0,0,1-1.47-2.2h0q1.44.41,2.94.78a68.31,68.31,0,0,0,16.38,2.27,48.13,48.13,0,0,0,15.12-1.68,34.27,34.27,0,0,0,4.21-1.37Zm-22.41-2A65.52,65.52,0,0,1,25.16,32a19.27,19.27,0,0,1-6.89-4,5.15,5.15,0,0,1-1.53-2.87,109.38,109.38,0,0,0,20.07,5.84,110.21,110.21,0,0,0,20.75,2.17,66.6,66.6,0,0,0,6.82-.33,36.64,36.64,0,0,0,6.72-1.25C69.78,33.74,64.4,38.31,42.66,36.14Zm21.13-8.71c-7.12.73-16.32.11-25.89-1.76C15.82,21.36,5,13.33,5.56,10.41c.19-.94,2.53-2.91,10-3.68a61.74,61.74,0,0,1,6.27-.3A104.5,104.5,0,0,1,41.46,8.49C63.54,12.8,74.41,20.83,73.8,23.75,73.61,24.69,71.27,26.66,63.79,27.43Z"/><path class="cls-1" d="M109.22,58.58l-2.39-8.38h1.55L110,56.87h0l1.64-6.67h1.56l1.69,6.72h0l1.7-6.72H118l-2.37,8.38H114.1L112.36,52h0l-1.63,6.55h-1.51Z"/><path class="cls-1" d="M126.25,58.81a2.77,2.77,0,0,1-2-.66,2.29,2.29,0,0,1-.72-1.78,2.4,2.4,0,0,1,.68-1.79,3.29,3.29,0,0,1,2-.83l1.92-.25a3.11,3.11,0,0,0,.44-.07.7.7,0,0,0,.43-.29.87.87,0,0,0,.14-.53v-.07a1.22,1.22,0,0,0-.5-1,2.37,2.37,0,0,0-1.42-.38,2.08,2.08,0,0,0-1.36.4,1.77,1.77,0,0,0-.59,1.2H124a2.76,2.76,0,0,1,1-2.07,3.93,3.93,0,0,1,2.49-.69,3.59,3.59,0,0,1,2.33.66,2.38,2.38,0,0,1,.8,1.93v4.61a.49.49,0,0,0,.12.34.52.52,0,0,0,.35.13l.19,0a1.32,1.32,0,0,0,.26-.05v1a3.06,3.06,0,0,1-.43.13,2,2,0,0,1-.39,0,1.4,1.4,0,0,1-1.15-.43,1.87,1.87,0,0,1-.34-.83,4.27,4.27,0,0,1-.36.38A3.76,3.76,0,0,1,126.25,58.81Zm2.92-3.55v-.91a3,3,0,0,1-.86.26l-1.3.19a3.38,3.38,0,0,0-1.48.47,1,1,0,0,0-.47.91,1.42,1.42,0,0,0,.38,1.08,1.49,1.49,0,0,0,1.09.38,3,3,0,0,0,1.88-.6,2,2,0,0,0,.69-1,1.06,1.06,0,0,0,.05-.32A3.94,3.94,0,0,0,129.17,55.26Z"/><path class="cls-1" d="M140.86,58.57a7.08,7.08,0,0,1-1.05.11,1.72,1.72,0,0,1-1.31-.41,2,2,0,0,1-.38-1.4V51.35H137V50.2h1.16V47.85h1.41V50.2h1.33v1.15h-1.33v5.52a.55.55,0,0,0,.22.45,1,1,0,0,0,.6.16h.51Z"/><path class="cls-1" d="M150.46,58.81a3.6,3.6,0,0,1-2.8-1.13,4.52,4.52,0,0,1-1-3.12,5,5,0,0,1,1.07-3.36,3.65,3.65,0,0,1,2.9-1.25,3.28,3.28,0,0,1,2.65,1.22,4.86,4.86,0,0,1,1,3.21v.5h-6.13a3.54,3.54,0,0,0,.58,1.91,2.16,2.16,0,0,0,1.88.8,2.28,2.28,0,0,0,1.4-.45,1.81,1.81,0,0,0,.74-1.16h1.39a3.5,3.5,0,0,1-1.25,2.1A3.81,3.81,0,0,1,150.46,58.81Zm2.35-5.06a3.08,3.08,0,0,0-.58-1.82,2,2,0,0,0-1.67-.72,2.17,2.17,0,0,0-1.78.83,3.22,3.22,0,0,0-.64,1.71Z"/><path class="cls-1" d="M161,50.2h1.34v1.43a5.3,5.3,0,0,1,.39-.61,2.37,2.37,0,0,1,2-1.07,1.12,1.12,0,0,1,.4.07v1.44h-.29a2.24,2.24,0,0,0-1.76.69,2.77,2.77,0,0,0-.63,2v4.49H161Z"/><path class="cls-1" d="M183.61,58.81a3.58,3.58,0,0,1-2.79-1.13,4.48,4.48,0,0,1-1-3.12,5,5,0,0,1,1.08-3.36A3.62,3.62,0,0,1,183.77,50a3.3,3.3,0,0,1,2.66,1.22,4.91,4.91,0,0,1,1,3.21l0,.5H181.3a3.63,3.63,0,0,0,.57,1.91,2.17,2.17,0,0,0,1.88.8,2.28,2.28,0,0,0,1.41-.45,1.84,1.84,0,0,0,.73-1.16h1.4a3.55,3.55,0,0,1-1.25,2.1A3.84,3.84,0,0,1,183.61,58.81ZM186,53.75a3.15,3.15,0,0,0-.58-1.82,2,2,0,0,0-1.68-.72,2.19,2.19,0,0,0-1.78.83,3.13,3.13,0,0,0-.63,1.71Z"/><path class="cls-1" d="M193.93,50.2h1.34v1.24l.31-.42A3.19,3.19,0,0,1,200,50.7a2.89,2.89,0,0,1,.75,2.14v5.74h-1.41V53.32a2.39,2.39,0,0,0-.43-1.6,1.75,1.75,0,0,0-1.38-.49,1.91,1.91,0,0,0-1.61.78,3.3,3.3,0,0,0-.6,2.08v4.49h-1.41Z"/><path class="cls-1" d="M210.73,61a2.26,2.26,0,0,0,1.85-.76,3.37,3.37,0,0,0,.64-2.23v-.27h0a2.74,2.74,0,0,1-2.27,1.12,3.24,3.24,0,0,1-2.68-1.26,5.35,5.35,0,0,1-1-3.4,4.57,4.57,0,0,1,1-3A3.21,3.21,0,0,1,210.8,50a2.76,2.76,0,0,1,2.4,1.31l.1.15V50.2h1.33V58a4.53,4.53,0,0,1-1,3.14,3.79,3.79,0,0,1-2.91,1,3.58,3.58,0,0,1-2.27-.66,2.84,2.84,0,0,1-1-1.91h1.45a1.62,1.62,0,0,0,.59,1A2,2,0,0,0,210.73,61Zm.28-9.72a2,2,0,0,0-1.73.76,4.12,4.12,0,0,0-.54,2.38,4,4,0,0,0,.59,2.38,1.92,1.92,0,0,0,1.68.84,2,2,0,0,0,1.65-.77,3.1,3.1,0,0,0,.63-2,5,5,0,0,0-.57-2.67A1.9,1.9,0,0,0,211,51.23Z"/><path class="cls-1" d="M221.43,47.07h1.44v1.59h-1.44Zm0,3.13h1.41v8.38h-1.41Z"/><path class="cls-1" d="M229.77,50.2h1.34v1.24l.31-.42a3.19,3.19,0,0,1,4.44-.32,2.89,2.89,0,0,1,.75,2.14v5.74H235.2V53.32a2.39,2.39,0,0,0-.43-1.6,1.75,1.75,0,0,0-1.38-.49,1.91,1.91,0,0,0-1.61.78,3.3,3.3,0,0,0-.6,2.08v4.49h-1.41Z"/><path class="cls-1" d="M246.92,58.81a3.59,3.59,0,0,1-2.8-1.13,4.52,4.52,0,0,1-1-3.12,5,5,0,0,1,1.07-3.36,3.64,3.64,0,0,1,2.9-1.25,3.28,3.28,0,0,1,2.65,1.22,4.86,4.86,0,0,1,1,3.21v.5H244.6a3.54,3.54,0,0,0,.58,1.91,2.15,2.15,0,0,0,1.87.8,2.28,2.28,0,0,0,1.41-.45A1.81,1.81,0,0,0,249.2,56h1.39a3.5,3.5,0,0,1-1.25,2.1A3.81,3.81,0,0,1,246.92,58.81Zm2.35-5.06a3.08,3.08,0,0,0-.58-1.82,2,2,0,0,0-1.67-.72,2.17,2.17,0,0,0-1.78.83,3.22,3.22,0,0,0-.64,1.71Z"/><path class="cls-1" d="M260.65,58.81a3.58,3.58,0,0,1-2.79-1.13,4.48,4.48,0,0,1-1-3.12,5,5,0,0,1,1.07-3.36,3.65,3.65,0,0,1,2.9-1.25,3.27,3.27,0,0,1,2.65,1.22,4.86,4.86,0,0,1,1,3.21v.5h-6.12a3.46,3.46,0,0,0,.57,1.91,2.17,2.17,0,0,0,1.88.8,2.33,2.33,0,0,0,1.41-.45,1.84,1.84,0,0,0,.73-1.16h1.4a3.51,3.51,0,0,1-1.26,2.1A3.79,3.79,0,0,1,260.65,58.81ZM263,53.75a3.22,3.22,0,0,0-.58-1.82,2,2,0,0,0-1.68-.72A2.17,2.17,0,0,0,259,52a3.13,3.13,0,0,0-.63,1.71Z"/><path class="cls-1" d="M271.16,50.2h1.34v1.43a5.3,5.3,0,0,1,.39-.61,2.39,2.39,0,0,1,2-1.07,1.12,1.12,0,0,1,.4.07v1.44H275a2.24,2.24,0,0,0-1.76.69,2.77,2.77,0,0,0-.63,2v4.49h-1.41Z"/><path class="cls-1" d="M281.15,47.07h1.45v1.59h-1.45Zm0,3.13h1.41v8.38h-1.41Z"/><path class="cls-1" d="M289.5,50.2h1.34v1.24l.31-.42a2.91,2.91,0,0,1,2.3-1.07,2.63,2.63,0,0,1,2.89,2.89v5.74h-1.41V53.32a2.45,2.45,0,0,0-.43-1.6,1.78,1.78,0,0,0-1.38-.49,1.94,1.94,0,0,0-1.62.78,3.36,3.36,0,0,0-.59,2.08v4.49H289.5Z"/><path class="cls-1" d="M306.3,61a2.26,2.26,0,0,0,1.85-.76,3.43,3.43,0,0,0,.63-2.23v-.27h0a2.71,2.71,0,0,1-2.27,1.12,3.22,3.22,0,0,1-2.67-1.26,5.29,5.29,0,0,1-1-3.4,4.57,4.57,0,0,1,1-3A3.2,3.2,0,0,1,306.37,50a2.76,2.76,0,0,1,2.4,1.31l.1.15V50.2h1.32V58a4.48,4.48,0,0,1-.95,3.14,3.81,3.81,0,0,1-2.92,1,3.55,3.55,0,0,1-2.26-.66,2.8,2.8,0,0,1-1-1.91h1.44a1.59,1.59,0,0,0,.6,1A2,2,0,0,0,306.3,61Zm.27-9.72a2,2,0,0,0-1.72.76,4,4,0,0,0-.55,2.38,4.12,4.12,0,0,0,.59,2.38,2,2,0,0,0,1.68.84,2,2,0,0,0,1.66-.77,3.15,3.15,0,0,0,.62-2,5.11,5.11,0,0,0-.56-2.67A1.91,1.91,0,0,0,306.57,51.23Z"/><path class="cls-1" d="M92.48,1.08h6l11.32,33.79h0l11.3-33.79H127L112.62,40.6h-5.76Z"/><path class="cls-1" d="M135.58,35.94q-5.33-5.74-5.32-15.07t5.32-15.12Q140.9,0,149.51,0t14,5.75q5.31,5.76,5.31,15.12t-5.31,15.07q-5.31,5.75-14,5.74T135.58,35.94Zm23.91-3.43q3.8-4.44,3.79-11.64T159.49,9.18a13.38,13.38,0,0,0-19.93,0q-3.8,4.46-3.79,11.69t3.79,11.64a13.4,13.4,0,0,0,19.93,0Z"/><path class="cls-1" d="M175.78,1.08h18.4q6.28,0,9.57,2.73t3.28,8a10.17,10.17,0,0,1-3.41,8.12,13.39,13.39,0,0,1-1.86,1.29l.89.43q3.6,2.07,3.74,7l.21,7.21a6.38,6.38,0,0,0,.46,2.55,3.32,3.32,0,0,0,1.56,1.35v.86H202a10.9,10.9,0,0,1-.43-2.53c-.15-1.36-.25-2.88-.32-4.54l-.12-3.12q-.12-3.69-1.81-5.26c-1.12-1.05-3-1.57-5.53-1.57H181.14v17h-5.36Zm5.36,17.85h13.23q3.7,0,5.43-1.63c1.14-1.08,1.72-2.8,1.72-5.15s-.61-3.94-1.82-5S196.58,5.57,194,5.57H181.14Z"/><path class="cls-1" d="M224.86,5.81H211.5V1.08h32.08V5.81H230.21V40.6h-5.35Z"/><path class="cls-1" d="M249.09,40.6V1.08H278V5.81H254.44V17.88H276v4.74H254.44V35.87h23.85V40.6Z"/><path class="cls-1" d="M296.18,20.87,283,1.08h6.61l9.7,15.42L309.77,1.08h6.44L302.36,20.52,316.77,40.6h-6.55L299.36,24.69,288.64,40.6h-6.5Z"/></g></g></svg>