<svg xmlns="http://www.w3.org/2000/svg" viewBox="0 0 233 178"><defs><style>.cls-1{fill:#fff;}</style></defs><title>Asset 2</title><g id="Layer_2" data-name="Layer 2"><g id="Layer_1-2" data-name="Layer 1"><path class="cls-1" d="M148.35,26.77s-5.59-5.15-21-9.22c-9.49-2.5-21-3.44-26.28-2.81-6.68.8-9,2.14-10.07,2.83l5.21,2.34c.22-.08.43-.17.68-.24,5.61-1.92,16.87-2.12,29.58.32C140.17,22.62,148.35,26.77,148.35,26.77Z"/><path class="cls-1" d="M119.78,2.48C108.21.22,97-.53,88.22.37c-12.76,1.32-16.29,5.69-17,9.14-1.09,5.25,3.89,10.38,12,14.73a8.1,8.1,0,0,0-.1,6A15.68,15.68,0,0,0,89.92,38a43.86,43.86,0,0,0,8.17,3.55,8.09,8.09,0,0,0,1.26,5.23,12.41,12.41,0,0,0,4.66,4,29.75,29.75,0,0,0,5.53,2.11h0a21,21,0,0,0,10.73,7.49l.9.23c.27,2.3,5.37,6.7,10.59,4.72A8,8,0,0,0,137,56a13.55,13.55,0,0,0,4.76-7.77,12.69,12.69,0,0,0,4.61-6.08c6.17-2.73,6.82-5.93,6.71-7.47h0c6.1-2,8.16-5,8.68-7.5C163.93,16.78,142.28,6.87,119.78,2.48Zm16.37,54.26c-2.11,6-9.64,8-14.1,4a15.06,15.06,0,0,0,4,0,18.15,18.15,0,0,0,5.7-1.42,21,21,0,0,0,4.43-2.63Zm4.81-7.9c-4.49,7.53-19.83,10.28-29.73,4.44h0c.93.18,1.9.32,3,.45a50.6,50.6,0,0,0,12.72,0,33.27,33.27,0,0,0,11.21-3.22A19.44,19.44,0,0,0,141,48.84Zm4.61-6.32C144,44.9,138.8,49.24,124,49.78a52.66,52.66,0,0,1-14.47-1.66c-2-.52-5-1.52-6.51-3.08a9.68,9.68,0,0,1-1.69-2.52h0c1.1.31,2.22.61,3.37.9A78.69,78.69,0,0,0,123.44,46a55,55,0,0,0,17.31-1.92,36.89,36.89,0,0,0,4.82-1.58Zm-25.66-2.35a74.92,74.92,0,0,1-20-4.78C97,34.27,94.23,33.05,92,30.82a5.9,5.9,0,0,1-1.75-3.29,125.94,125.94,0,0,0,23,6.69A125.89,125.89,0,0,0,137,36.7a76.58,76.58,0,0,0,7.8-.37,43.94,43.94,0,0,0,7.71-1.43C151,37.42,144.8,42.65,119.91,40.17Zm24.2-10c-8.16.83-18.69.12-29.64-2-25.28-4.94-37.73-14.13-37-17.47.22-1.08,2.91-3.34,11.46-4.22a70.24,70.24,0,0,1,7.17-.34,119.26,119.26,0,0,1,22.47,2.36c25.28,4.93,37.73,14.13,37,17.46C155.34,27.06,152.66,29.32,144.11,30.21Z"/><path class="cls-1" d="M17.39,174.33l-2.47-8.71h1.6l1.68,6.93h0l1.7-6.93h1.62l1.75,7h0l1.77-7h1.45L24,174.33H22.46l-1.8-6.81h0L19,174.33H17.39Z"/><path class="cls-1" d="M35.09,174.56a2.93,2.93,0,0,1-2-.68,2.38,2.38,0,0,1-.75-1.85,2.49,2.49,0,0,1,.71-1.86,3.44,3.44,0,0,1,2-.86l2-.26a2.33,2.33,0,0,0,.46-.08.72.72,0,0,0,.44-.29,1,1,0,0,0,.15-.55v-.08a1.27,1.27,0,0,0-.53-1.09,2.42,2.42,0,0,0-1.47-.39,2.15,2.15,0,0,0-1.41.41,1.85,1.85,0,0,0-.61,1.25H32.75a2.88,2.88,0,0,1,1-2.15,4.09,4.09,0,0,1,2.59-.72,3.71,3.71,0,0,1,2.42.69,2.45,2.45,0,0,1,.83,2v4.79a.48.48,0,0,0,.13.35.49.49,0,0,0,.36.14l.2,0,.27-.05v1.06a3,3,0,0,1-.45.13,2.28,2.28,0,0,1-.4.05,1.45,1.45,0,0,1-1.2-.46,1.91,1.91,0,0,1-.35-.85,4.6,4.6,0,0,1-.38.39A3.88,3.88,0,0,1,35.09,174.56Zm3-3.68v-.95a3.15,3.15,0,0,1-.9.27l-1.34.2a3.52,3.52,0,0,0-1.55.49,1.1,1.1,0,0,0-.49.94,1.38,1.38,0,0,0,1.53,1.52,3.09,3.09,0,0,0,2-.63,2.11,2.11,0,0,0,.72-1,1.65,1.65,0,0,0,.05-.33A4.27,4.27,0,0,0,38.12,170.88Z"/><path class="cls-1" d="M50.26,174.32a9.27,9.27,0,0,1-1.09.11,1.83,1.83,0,0,1-1.36-.42,2.15,2.15,0,0,1-.39-1.46v-5.73H46.21v-1.2h1.21v-2.44h1.46v2.44h1.38v1.2H48.88v5.73a.57.57,0,0,0,.23.47,1.09,1.09,0,0,0,.63.17h.52Z"/><path class="cls-1" d="M60.24,174.56a3.72,3.72,0,0,1-2.91-1.17,4.68,4.68,0,0,1-1.06-3.24,5.19,5.19,0,0,1,1.12-3.49,3.77,3.77,0,0,1,3-1.3,3.4,3.4,0,0,1,2.76,1.27,5.07,5.07,0,0,1,1,3.34v.52H57.83a3.81,3.81,0,0,0,.59,2,2.29,2.29,0,0,0,1.95.83,2.41,2.41,0,0,0,1.47-.47,1.91,1.91,0,0,0,.76-1.2h1.45a3.68,3.68,0,0,1-1.3,2.18A4,4,0,0,1,60.24,174.56Zm2.44-5.25a3.29,3.29,0,0,0-.6-1.89,2.1,2.1,0,0,0-1.74-.75,2.25,2.25,0,0,0-1.85.86,3.28,3.28,0,0,0-.66,1.78Z"/><path class="cls-1" d="M71.16,165.62h1.39v1.49a4,4,0,0,1,.4-.63,2.45,2.45,0,0,1,2-1.12,1.53,1.53,0,0,1,.41.07v1.5h-.3a2.36,2.36,0,0,0-1.83.71,3,3,0,0,0-.65,2v4.67H71.16Z"/><path class="cls-1" d="M94.68,174.56a3.72,3.72,0,0,1-2.91-1.17,4.68,4.68,0,0,1-1.06-3.24,5.19,5.19,0,0,1,1.12-3.49,3.77,3.77,0,0,1,3-1.3,3.4,3.4,0,0,1,2.76,1.27,5.07,5.07,0,0,1,1,3.34v.52H92.27a3.81,3.81,0,0,0,.59,2,2.3,2.3,0,0,0,2,.83,2.41,2.41,0,0,0,1.47-.47,1.91,1.91,0,0,0,.76-1.2h1.45a3.68,3.68,0,0,1-1.3,2.18A4,4,0,0,1,94.68,174.56Zm2.44-5.25a3.29,3.29,0,0,0-.6-1.89,2.1,2.1,0,0,0-1.75-.75,2.26,2.26,0,0,0-1.84.86,3.28,3.28,0,0,0-.66,1.78Z"/><path class="cls-1" d="M105.39,165.62h1.39v1.29l.33-.43a3,3,0,0,1,5.39,1.88v6H111v-5.47a2.54,2.54,0,0,0-.44-1.66,1.83,1.83,0,0,0-1.44-.5,2,2,0,0,0-1.67.8,3.38,3.38,0,0,0-.62,2.16v4.67h-1.47Z"/><path class="cls-1" d="M122.85,176.79a2.35,2.35,0,0,0,1.92-.79,3.55,3.55,0,0,0,.66-2.32v-.28h0a2.85,2.85,0,0,1-2.36,1.15,3.34,3.34,0,0,1-2.78-1.3,5.54,5.54,0,0,1-1-3.53,4.71,4.71,0,0,1,1-3.16,3.29,3.29,0,0,1,2.66-1.21,2.85,2.85,0,0,1,2.49,1.36l.11.15v-1.25h1.37v8.06a4.77,4.77,0,0,1-1,3.27,4,4,0,0,1-3,1.05,3.67,3.67,0,0,1-2.35-.68,2.9,2.9,0,0,1-1-2H121a1.64,1.64,0,0,0,.62,1.07A2,2,0,0,0,122.85,176.79Zm.28-10.09a2,2,0,0,0-1.79.78,5.45,5.45,0,0,0,0,5,2,2,0,0,0,1.74.86,2.12,2.12,0,0,0,1.72-.79,3.28,3.28,0,0,0,.65-2.11,5.23,5.23,0,0,0-.59-2.77A2,2,0,0,0,123.13,166.7Z"/><path class="cls-1" d="M134,162.37h1.49V164H134Zm0,3.25h1.47v8.71H134Z"/><path class="cls-1" d="M142.62,165.62H144v1.29l.33-.43a3,3,0,0,1,5.39,1.88v6h-1.47v-5.47a2.54,2.54,0,0,0-.44-1.66,1.83,1.83,0,0,0-1.44-.5,2,2,0,0,0-1.67.8,3.38,3.38,0,0,0-.62,2.16v4.67h-1.47Z"/><path class="cls-1" d="M160.44,174.56a3.72,3.72,0,0,1-2.91-1.17,4.68,4.68,0,0,1-1.06-3.24,5.19,5.19,0,0,1,1.12-3.49,3.77,3.77,0,0,1,3-1.3,3.4,3.4,0,0,1,2.76,1.27,5.08,5.08,0,0,1,1,3.34l0,.52H158a3.81,3.81,0,0,0,.59,2,2.3,2.3,0,0,0,1.95.83,2.41,2.41,0,0,0,1.47-.47,1.91,1.91,0,0,0,.76-1.2h1.45a3.68,3.68,0,0,1-1.3,2.18A4,4,0,0,1,160.44,174.56Zm2.44-5.25a3.22,3.22,0,0,0-.6-1.89,2.1,2.1,0,0,0-1.74-.75,2.26,2.26,0,0,0-1.85.86,3.36,3.36,0,0,0-.66,1.78Z"/><path class="cls-1" d="M174.7,174.56a3.7,3.7,0,0,1-2.9-1.17,4.63,4.63,0,0,1-1.06-3.24,5.14,5.14,0,0,1,1.12-3.49,3.74,3.74,0,0,1,3-1.3,3.4,3.4,0,0,1,2.76,1.27,5.08,5.08,0,0,1,1,3.34l0,.52H172.3a3.72,3.72,0,0,0,.59,2,2.27,2.27,0,0,0,2,.83,2.36,2.36,0,0,0,1.46-.47,1.93,1.93,0,0,0,.77-1.2h1.45a3.68,3.68,0,0,1-1.3,2.18A4,4,0,0,1,174.7,174.56Zm2.45-5.25a3.29,3.29,0,0,0-.61-1.89,2.07,2.07,0,0,0-1.74-.75,2.24,2.24,0,0,0-1.84.86,3.2,3.2,0,0,0-.66,1.78Z"/><path class="cls-1" d="M185.62,165.62H187v1.49a6.21,6.21,0,0,1,.4-.63,2.48,2.48,0,0,1,2-1.12,1.54,1.54,0,0,1,.42.07v1.5h-.3a2.38,2.38,0,0,0-1.84.71,2.94,2.94,0,0,0-.64,2v4.67h-1.47Z"/><path class="cls-1" d="M196,162.37h1.5V164H196Zm0,3.25h1.46v8.71H196Z"/><path class="cls-1" d="M204.67,165.62h1.39v1.29l.32-.43a3,3,0,0,1,5.39,1.88v6H210.3v-5.47a2.48,2.48,0,0,0-.44-1.66,1.79,1.79,0,0,0-1.43-.5,2,2,0,0,0-1.68.8,3.44,3.44,0,0,0-.62,2.16v4.67h-1.46Z"/><path class="cls-1" d="M222.12,176.79A2.35,2.35,0,0,0,224,176a3.55,3.55,0,0,0,.66-2.32v-.28h0a2.85,2.85,0,0,1-2.36,1.15,3.36,3.36,0,0,1-2.78-1.3,5.53,5.53,0,0,1-1-3.53,4.75,4.75,0,0,1,1-3.16,3.31,3.31,0,0,1,2.66-1.21,2.85,2.85,0,0,1,2.49,1.36l.11.15v-1.25h1.37v8.06a4.67,4.67,0,0,1-1,3.27,4,4,0,0,1-3,1.05,3.69,3.69,0,0,1-2.35-.68,2.9,2.9,0,0,1-1-2h1.5a1.73,1.73,0,0,0,.62,1.07A2,2,0,0,0,222.12,176.79Zm.29-10.09a2.08,2.08,0,0,0-1.8.78,5.53,5.53,0,0,0,0,5,2,2,0,0,0,1.75.86,2.09,2.09,0,0,0,1.71-.79,3.28,3.28,0,0,0,.65-2.11,5.14,5.14,0,0,0-.59-2.77A1.94,1.94,0,0,0,222.41,166.7Z"/><path class="cls-1" d="M0,114.59H6.18L18,149.7h0l11.73-35.11h6.16L20.92,155.65h-6Z"/><path class="cls-1" d="M44.78,150.81q-5.53-6-5.53-15.66t5.53-15.7q5.53-6,14.47-6t14.51,6q5.52,6,5.52,15.7t-5.52,15.66q-5.52,6-14.51,6T44.78,150.81Zm24.83-3.56q3.94-4.62,3.94-12.1T69.61,123a12.94,12.94,0,0,0-10.36-4.62A12.93,12.93,0,0,0,48.91,123Q45,127.64,45,135.15t3.94,12.1a13,13,0,0,0,10.34,4.6A13,13,0,0,0,69.61,147.25Z"/><path class="cls-1" d="M86.54,114.59h19.11q6.52,0,9.94,2.84t3.41,8.31a10.5,10.5,0,0,1-3.55,8.43,11.86,11.86,0,0,1-1.93,1.34l.93.45c2.49,1.44,3.79,3.85,3.88,7.24l.22,7.48a6.65,6.65,0,0,0,.48,2.66,3.41,3.41,0,0,0,1.62,1.39v.9h-6.84a11.52,11.52,0,0,1-.44-2.63c-.15-1.41-.26-3-.34-4.72l-.12-3.24q-.12-3.82-1.87-5.46c-1.18-1.09-3.09-1.64-5.76-1.64H92.1v17.71H86.54Zm5.56,18.55h13.74q3.85,0,5.65-1.69t1.78-5.35c0-2.36-.63-4.1-1.88-5.2s-3.25-1.64-6-1.64H92.1Z"/><path class="cls-1" d="M137.52,119.51H123.64v-4.92H157v4.92H143.08v36.14h-5.56Z"/><path class="cls-1" d="M162.69,155.65V114.59h30v4.92H168.25v12.54H190.6V137H168.25v13.77H193v4.91Z"/><path class="cls-1" d="M211.6,135.15l-13.66-20.56h6.88l10.07,16,10.84-16h6.68L218,134.79l15,20.86h-6.81l-11.28-16.53-11.14,16.53H197Z"/></g></g></svg>