<svg xmlns="http://www.w3.org/2000/svg" viewBox="0 0 22.04 44.07"><defs><style>.cls-1{fill:#fff;}</style></defs><title>Asset 4</title><g id="Layer_2" data-name="Layer 2"><g id="Layer_1-2" data-name="Layer 1"><polygon class="cls-1" points="18.11 38.81 11.01 44.07 3.93 38.81 4.5 38.03 11.01 42.87 17.54 38.03 18.11 38.81"/><path class="cls-1" d="M11,34.29A10.88,10.88,0,0,1,0,23.57V10.72A10.88,10.88,0,0,1,11,0,10.88,10.88,0,0,1,22,10.72V23.57A10.88,10.88,0,0,1,11,34.29ZM11,.86A10,10,0,0,0,.88,10.72V23.57A10,10,0,0,0,11,33.43a10,10,0,0,0,10.14-9.86V10.72A10,10,0,0,0,11,.86Z"/><ellipse class="cls-1" cx="11.02" cy="9.73" rx="2.05" ry="2.62"/></g></g></svg>