<svg id="Layer_1" data-name="Layer 1" xmlns="http://www.w3.org/2000/svg" viewBox="0 0 70.22 50.9"><defs><style>.cls-1{fill:#fff;}</style></defs><title>svg1</title><path class="cls-1" d="M180.17,74.06s-4.32-4-16.23-7.13c-7.33-1.93-16.2-2.66-20.31-2.17-5.16.62-7,1.65-7.78,2.18l4,1.81c.17-.06.33-.13.52-.19,4.34-1.48,13-1.63,22.87.25A69.69,69.69,0,0,1,180.17,74.06Z" transform="translate(-120.44 -53.37)"/><path class="cls-1" d="M158.09,55.29c-8.94-1.75-17.61-2.33-24.39-1.63-9.87,1-12.59,4.4-13.14,7.06-.84,4.06,3,8,9.26,11.39a6.29,6.29,0,0,0-.08,4.67,12.14,12.14,0,0,0,5.27,6,34.25,34.25,0,0,0,6.31,2.75,6.23,6.23,0,0,0,1,4,9.58,9.58,0,0,0,3.6,3.13,22.73,22.73,0,0,0,4.27,1.63h0a16.2,16.2,0,0,0,8.29,5.79l.69.17c.21,1.78,4.15,5.18,8.19,3.65a6.17,6.17,0,0,0,4.07-7.21,10.51,10.51,0,0,0,3.68-6,9.8,9.8,0,0,0,3.56-4.7c4.77-2.12,5.27-4.59,5.19-5.78h0c4.71-1.51,6.3-3.85,6.71-5.8C192.22,66.34,175.48,58.68,158.09,55.29Zm12.65,41.94c-1.63,4.68-7.45,6.21-10.9,3.13a11.7,11.7,0,0,0,3.07,0,14.08,14.08,0,0,0,4.41-1.09,16.51,16.51,0,0,0,3.42-2Zm3.72-6.11c-3.47,5.83-15.33,7.95-23,3.44h0c.72.14,1.47.24,2.29.34a38.61,38.61,0,0,0,9.83,0,25.63,25.63,0,0,0,8.67-2.49,14.37,14.37,0,0,0,2.19-1.26ZM178,86.23c-1.22,1.85-5.23,5.2-16.68,5.61a40.73,40.73,0,0,1-11.19-1.28,11.88,11.88,0,0,1-5-2.38,7.43,7.43,0,0,1-1.3-1.95h0c.85.24,1.72.47,2.6.69a60.84,60.84,0,0,0,14.5,2,42.59,42.59,0,0,0,13.38-1.49A29.55,29.55,0,0,0,178,86.23Zm-19.83-1.81a57.78,57.78,0,0,1-15.49-3.7,17.18,17.18,0,0,1-6.1-3.53,4.51,4.51,0,0,1-1.35-2.54A97.18,97.18,0,0,0,153,79.82a97.65,97.65,0,0,0,18.36,1.92,59.16,59.16,0,0,0,6-.29,33.1,33.1,0,0,0,6-1.11C182.2,82.3,177.43,86.34,158.19,84.42Zm18.7-7.71c-6.3.65-14.44.09-22.91-1.56-19.54-3.82-29.16-10.92-28.62-13.5.17-.83,2.24-2.58,8.86-3.26a54.36,54.36,0,0,1,5.54-.26A92.49,92.49,0,0,1,157.13,60c19.54,3.82,29.16,10.92,28.62,13.5C185.58,74.29,183.51,76,176.89,76.72Z" transform="translate(-120.44 -53.37)"/></svg>