<svg id="Layer_1" data-name="Layer 1" xmlns="http://www.w3.org/2000/svg" viewBox="0 0 198.48 36.88"><defs><style>.cls-1{fill:#fff;}</style></defs><title>svg2</title><path class="cls-1" d="M56.31,61.33h5.27l10,29.9h0l10-29.9h5.24l-12.73,35H69Z" transform="translate(-56.31 -60.38)"/><path class="cls-1" d="M94.46,92.18q-4.71-5.08-4.71-13.34t4.71-13.37a16,16,0,0,1,12.33-5.09,16,16,0,0,1,12.36,5.09q4.7,5.09,4.7,13.37t-4.7,13.34a16,16,0,0,1-12.36,5.08A16,16,0,0,1,94.46,92.18Zm21.15-3Q119,85.22,119,78.84T115.61,68.5A11.84,11.84,0,0,0,98,68.5q-3.36,3.94-3.36,10.34T98,89.15a11.86,11.86,0,0,0,17.63,0Z" transform="translate(-56.31 -60.38)"/><path class="cls-1" d="M130,61.33h16.28q5.57,0,8.47,2.42t2.9,7.08a9,9,0,0,1-3,7.19A10.87,10.87,0,0,1,153,79.15l.79.38q3.19,1.83,3.31,6.16l.19,6.38a5.62,5.62,0,0,0,.4,2.26,2.91,2.91,0,0,0,1.38,1.19v.76h-5.82a10.16,10.16,0,0,1-.38-2.24q-.19-1.81-.28-4l-.11-2.76q-.09-3.26-1.59-4.65T146,81.22H134.77V96.31H130Zm4.74,15.8h11.71q3.28,0,4.81-1.44a6,6,0,0,0,1.52-4.56,5.58,5.58,0,0,0-1.61-4.43q-1.61-1.4-5.08-1.4H134.77Z" transform="translate(-56.31 -60.38)"/><path class="cls-1" d="M173.46,65.52H161.64V61.33H190v4.19H178.2V96.31h-4.74Z" transform="translate(-56.31 -60.38)"/><path class="cls-1" d="M194.9,96.31v-35h25.58v4.19H199.64V76.2h19v4.19h-19V92.12h21.11v4.19Z" transform="translate(-56.31 -60.38)"/><path class="cls-1" d="M236.57,78.84,224.93,61.33h5.86L239.37,75l9.23-13.65h5.7L242,78.53,254.8,96.31H249l-9.61-14.08L229.9,96.31h-5.75Z" transform="translate(-56.31 -60.38)"/></svg>