<svg id="Layer_1" data-name="Layer 1" xmlns="http://www.w3.org/2000/svg" viewBox="0 0 179.95 13.32"><defs><style>.cls-1{fill:#fff;}</style></defs><title>svg3</title><path class="cls-1" d="M67.69,82.35l-2.11-7.42h1.37l1.43,5.9h0l1.45-5.9h1.39l1.49,5.95h0l1.5-5.95h1.24l-2.1,7.42H72l-1.53-5.79h0L69,82.35H67.69Z" transform="translate(-65.58 -72.16)"/><path class="cls-1" d="M82.76,82.55A2.46,2.46,0,0,1,81,82a2,2,0,0,1-.64-1.57,2.13,2.13,0,0,1,.6-1.59,3,3,0,0,1,1.75-.73l1.7-.21a2.64,2.64,0,0,0,.4-.07.63.63,0,0,0,.37-.25.8.8,0,0,0,.13-.47V77a1.1,1.1,0,0,0-.45-.93,2.06,2.06,0,0,0-1.25-.34,1.84,1.84,0,0,0-1.2.36,1.57,1.57,0,0,0-.52,1.06H80.77a2.45,2.45,0,0,1,.86-1.83,3.46,3.46,0,0,1,2.2-.61,3.15,3.15,0,0,1,2.06.59A2.09,2.09,0,0,1,86.6,77v4.08a.41.41,0,0,0,.11.3.41.41,0,0,0,.31.11h.16l.23,0v.9a2.46,2.46,0,0,1-.38.11,1.73,1.73,0,0,1-.34,0,1.25,1.25,0,0,1-1-.39,1.62,1.62,0,0,1-.3-.73,2.75,2.75,0,0,1-.32.33A3.3,3.3,0,0,1,82.76,82.55Zm2.58-3.14v-.8a2.65,2.65,0,0,1-.77.23L83.44,79a3.07,3.07,0,0,0-1.32.42.93.93,0,0,0-.42.8,1.29,1.29,0,0,0,.34,1,1.31,1.31,0,0,0,1,.34A2.61,2.61,0,0,0,84.67,81a1.81,1.81,0,0,0,.62-.85,1.38,1.38,0,0,0,0-.28A4.25,4.25,0,0,0,85.35,79.41Z" transform="translate(-65.58 -72.16)"/><path class="cls-1" d="M95.68,82.34a6.93,6.93,0,0,1-.93.1,1.53,1.53,0,0,1-1.15-.36,1.81,1.81,0,0,1-.34-1.24V76h-1v-1h1V72.85h1.25v2.08h1.17v1H94.51v4.89a.46.46,0,0,0,.2.39.88.88,0,0,0,.53.15h.44Z" transform="translate(-65.58 -72.16)"/><path class="cls-1" d="M104.18,82.55a3.16,3.16,0,0,1-2.47-1,4,4,0,0,1-.9-2.76,4.4,4.4,0,0,1,1-3,3.21,3.21,0,0,1,2.56-1.11,2.9,2.9,0,0,1,2.35,1.08,4.31,4.31,0,0,1,.89,2.84v.44h-5.42a3.2,3.2,0,0,0,.51,1.69,1.94,1.94,0,0,0,1.66.71,2,2,0,0,0,1.25-.4,1.63,1.63,0,0,0,.65-1h1.23a3.13,3.13,0,0,1-1.11,1.86A3.41,3.41,0,0,1,104.18,82.55Zm2.08-4.48a2.77,2.77,0,0,0-.51-1.61,1.78,1.78,0,0,0-1.48-.64,1.91,1.91,0,0,0-1.57.74,2.81,2.81,0,0,0-.56,1.51Z" transform="translate(-65.58 -72.16)"/><path class="cls-1" d="M113.49,74.93h1.18V76.2a4.38,4.38,0,0,1,.34-.54,2.11,2.11,0,0,1,1.74-.95,1.09,1.09,0,0,1,.35.06V76h-.26a2,2,0,0,0-1.56.61,2.48,2.48,0,0,0-.55,1.73v4h-1.25Z" transform="translate(-65.58 -72.16)"/><path class="cls-1" d="M133.52,82.55a3.17,3.17,0,0,1-2.47-1,4,4,0,0,1-.9-2.76,4.4,4.4,0,0,1,1-3,3.21,3.21,0,0,1,2.56-1.11A2.9,2.9,0,0,1,136,75.79a4.31,4.31,0,0,1,.89,2.84v.44h-5.42a3.2,3.2,0,0,0,.51,1.69,1.93,1.93,0,0,0,1.66.71,2,2,0,0,0,1.25-.4,1.63,1.63,0,0,0,.65-1h1.23a3.13,3.13,0,0,1-1.11,1.86A3.41,3.41,0,0,1,133.52,82.55Zm2.08-4.48a2.77,2.77,0,0,0-.51-1.61,1.78,1.78,0,0,0-1.48-.64,1.91,1.91,0,0,0-1.57.74,2.8,2.8,0,0,0-.56,1.51Z" transform="translate(-65.58 -72.16)"/><path class="cls-1" d="M142.65,74.93h1.18V76l.28-.37a2.52,2.52,0,0,1,4.59,1.61v5.08h-1.25V77.69a2.13,2.13,0,0,0-.38-1.41,1.54,1.54,0,0,0-1.22-.43,1.71,1.71,0,0,0-1.43.68,3,3,0,0,0-.53,1.85v4h-1.25Z" transform="translate(-65.58 -72.16)"/><path class="cls-1" d="M157.52,84.45a2,2,0,0,0,1.64-.68,3,3,0,0,0,.56-2v-.24h0a2.43,2.43,0,0,1-2,1,2.86,2.86,0,0,1-2.37-1.11,4.71,4.71,0,0,1-.88-3,4,4,0,0,1,.87-2.7,2.82,2.82,0,0,1,2.27-1,2.44,2.44,0,0,1,2.12,1.16l.09.13V74.93H161V81.8a4,4,0,0,1-.85,2.78,3.37,3.37,0,0,1-2.58.9,3.16,3.16,0,0,1-2-.58,2.47,2.47,0,0,1-.89-1.69h1.28a1.44,1.44,0,0,0,.53.92A1.7,1.7,0,0,0,157.52,84.45Zm.24-8.6a1.76,1.76,0,0,0-1.53.67,3.65,3.65,0,0,0-.48,2.11,3.6,3.6,0,0,0,.52,2.1,1.71,1.71,0,0,0,1.49.74,1.79,1.79,0,0,0,1.46-.68,2.75,2.75,0,0,0,.55-1.8,4.44,4.44,0,0,0-.5-2.36A1.68,1.68,0,0,0,157.76,75.85Z" transform="translate(-65.58 -72.16)"/><path class="cls-1" d="M167,72.16h1.28v1.41H167Zm0,2.77h1.25v7.42H167Z" transform="translate(-65.58 -72.16)"/><path class="cls-1" d="M174.37,74.93h1.18V76l.28-.37a2.52,2.52,0,0,1,4.59,1.61v5.08h-1.25V77.69a2.13,2.13,0,0,0-.38-1.41,1.54,1.54,0,0,0-1.22-.43,1.71,1.71,0,0,0-1.43.68,3,3,0,0,0-.53,1.85v4h-1.25Z" transform="translate(-65.58 -72.16)"/><path class="cls-1" d="M189.54,82.55a3.17,3.17,0,0,1-2.47-1,4,4,0,0,1-.9-2.76,4.4,4.4,0,0,1,1-3,3.21,3.21,0,0,1,2.56-1.11A2.9,2.9,0,0,1,192,75.79a4.31,4.31,0,0,1,.89,2.84v.44h-5.42a3.2,3.2,0,0,0,.51,1.69,1.93,1.93,0,0,0,1.66.71,2,2,0,0,0,1.25-.4,1.63,1.63,0,0,0,.65-1h1.23a3.13,3.13,0,0,1-1.11,1.86A3.41,3.41,0,0,1,189.54,82.55Zm2.08-4.48a2.77,2.77,0,0,0-.51-1.61,1.78,1.78,0,0,0-1.48-.64,1.91,1.91,0,0,0-1.57.74,2.8,2.8,0,0,0-.56,1.51Z" transform="translate(-65.58 -72.16)"/><path class="cls-1" d="M201.69,82.55a3.17,3.17,0,0,1-2.47-1,4,4,0,0,1-.9-2.76,4.4,4.4,0,0,1,1-3,3.21,3.21,0,0,1,2.56-1.11,2.9,2.9,0,0,1,2.35,1.08,4.31,4.31,0,0,1,.89,2.84v.44h-5.42a3.2,3.2,0,0,0,.51,1.69,1.93,1.93,0,0,0,1.66.71,2,2,0,0,0,1.25-.4,1.63,1.63,0,0,0,.65-1h1.23a3.13,3.13,0,0,1-1.11,1.86A3.41,3.41,0,0,1,201.69,82.55Zm2.08-4.48a2.77,2.77,0,0,0-.51-1.61,1.78,1.78,0,0,0-1.48-.64,1.91,1.91,0,0,0-1.57.74,2.8,2.8,0,0,0-.56,1.51Z" transform="translate(-65.58 -72.16)"/><path class="cls-1" d="M211,74.93h1.19V76.2a4.32,4.32,0,0,1,.34-.54,2.11,2.11,0,0,1,1.74-.95,1.08,1.08,0,0,1,.35.06V76h-.26a2,2,0,0,0-1.56.61,2.48,2.48,0,0,0-.55,1.73v4H211Z" transform="translate(-65.58 -72.16)"/><path class="cls-1" d="M219.84,72.16h1.28v1.41h-1.28Zm0,2.77h1.25v7.42h-1.25Z" transform="translate(-65.58 -72.16)"/><path class="cls-1" d="M227.22,74.93h1.18V76l.28-.37a2.52,2.52,0,0,1,4.59,1.61v5.08H232V77.69a2.13,2.13,0,0,0-.38-1.41,1.54,1.54,0,0,0-1.22-.43,1.71,1.71,0,0,0-1.43.68,3,3,0,0,0-.53,1.85v4h-1.25Z" transform="translate(-65.58 -72.16)"/><path class="cls-1" d="M242.09,84.45a2,2,0,0,0,1.64-.68,3,3,0,0,0,.56-2v-.24h0a2.43,2.43,0,0,1-2,1,2.86,2.86,0,0,1-2.37-1.11,4.71,4.71,0,0,1-.88-3,4,4,0,0,1,.87-2.7,2.82,2.82,0,0,1,2.27-1,2.44,2.44,0,0,1,2.12,1.16l.09.13V74.93h1.17V81.8a4,4,0,0,1-.85,2.78,3.37,3.37,0,0,1-2.58.9,3.16,3.16,0,0,1-2-.58,2.47,2.47,0,0,1-.89-1.69h1.28a1.44,1.44,0,0,0,.53.92A1.7,1.7,0,0,0,242.09,84.45Zm.24-8.6a1.76,1.76,0,0,0-1.53.67,3.65,3.65,0,0,0-.48,2.11,3.6,3.6,0,0,0,.52,2.1,1.71,1.71,0,0,0,1.49.74,1.79,1.79,0,0,0,1.46-.68,2.75,2.75,0,0,0,.55-1.8,4.44,4.44,0,0,0-.5-2.36A1.68,1.68,0,0,0,242.33,75.85Z" transform="translate(-65.58 -72.16)"/></svg>